<svg id="Layer_1" data-name="Layer 1" xmlns="http://www.w3.org/2000/svg" xmlns:xlink="http://www.w3.org/1999/xlink" viewBox="0 0 285.74 26.8"><defs><linearGradient id="New_Gradient_Swatch_1" x1="72.68" y1="151.73" x2="69.62" y2="274.28" gradientUnits="userSpaceOnUse"><stop offset="0" stop-color="#14fff6"/><stop offset="0.13" stop-color="#1dfff2"/><stop offset="0.34" stop-color="#37ffe5"/><stop offset="0.61" stop-color="#60ffd2"/><stop offset="0.93" stop-color="#99ffb7"/><stop offset="1" stop-color="#a7ffb0"/></linearGradient><linearGradient id="New_Gradient_Swatch_1-2" x1="93.34" y1="152.24" x2="90.27" y2="274.8" xlink:href="#New_Gradient_Swatch_1"/><linearGradient id="New_Gradient_Swatch_1-3" x1="136.36" y1="153.32" x2="133.3" y2="275.87" xlink:href="#New_Gradient_Swatch_1"/><linearGradient id="New_Gradient_Swatch_1-4" x1="161.85" y1="153.96" x2="158.79" y2="276.51" xlink:href="#New_Gradient_Swatch_1"/><linearGradient id="New_Gradient_Swatch_1-5" x1="179.43" y1="154.39" x2="176.37" y2="276.95" xlink:href="#New_Gradient_Swatch_1"/><linearGradient id="New_Gradient_Swatch_1-6" x1="212.73" y1="155.23" x2="209.67" y2="277.78" xlink:href="#New_Gradient_Swatch_1"/><linearGradient id="New_Gradient_Swatch_1-7" x1="235.31" y1="155.79" x2="232.24" y2="278.34" xlink:href="#New_Gradient_Swatch_1"/><linearGradient id="New_Gradient_Swatch_1-8" x1="255.97" y1="156.31" x2="252.9" y2="278.86" xlink:href="#New_Gradient_Swatch_1"/><linearGradient id="New_Gradient_Swatch_1-9" x1="278.71" y1="156.88" x2="275.65" y2="279.43" xlink:href="#New_Gradient_Swatch_1"/><linearGradient id="New_Gradient_Swatch_1-10" x1="329.04" y1="158.14" x2="325.98" y2="280.69" xlink:href="#New_Gradient_Swatch_1"/><linearGradient id="New_Gradient_Swatch_1-11" x1="348.9" y1="158.63" x2="345.84" y2="281.18" xlink:href="#New_Gradient_Swatch_1"/><linearGradient id="New_Gradient_Swatch_1-12" x1="114.76" y1="152.78" x2="111.7" y2="275.33" xlink:href="#New_Gradient_Swatch_1"/><linearGradient id="New_Gradient_Swatch_1-13" x1="303.62" y1="157.5" x2="300.55" y2="280.05" xlink:href="#New_Gradient_Swatch_1"/></defs><path d="M69.72,216.44H67.1V201.25a11,11,0,0,0-.08-1.44,1.81,1.81,0,0,0-.23-.74,1.54,1.54,0,0,0-.69-.48,2.67,2.67,0,0,0-.93-.15h-.68V198H71.2a16.28,16.28,0,0,1,2.22.13,8.28,8.28,0,0,1,1.69.38,5.18,5.18,0,0,1,1.3.69,4.54,4.54,0,0,1,1,1,4.22,4.22,0,0,1,.77,1.32,4.74,4.74,0,0,1,.24,1.54,5.48,5.48,0,0,1-.39,2.09,4.37,4.37,0,0,1-1.12,1.62,5.13,5.13,0,0,1-1.78,1,7.28,7.28,0,0,1-2.37.37,13.15,13.15,0,0,1-3-.39Zm0-9.4c.49.05.91.1,1.25.16a7.06,7.06,0,0,0,1,.08,2.84,2.84,0,0,0,1.26-.3,3.6,3.6,0,0,0,1.09-.82,4.56,4.56,0,0,0,.77-1.24,4.2,4.2,0,0,0,.29-1.56,5.1,5.1,0,0,0-.27-1.68,3.75,3.75,0,0,0-2-2.28,3.94,3.94,0,0,0-1.64-.33,7.24,7.24,0,0,0-.74.05,6.93,6.93,0,0,0-1,.2Z" transform="translate(-64.49 -192.81)" style="fill:url(#New_Gradient_Swatch_1)"/><path d="M101,216.48H97.33a5.36,5.36,0,0,1-.64,0,1,1,0,0,1-.45-.16,1.52,1.52,0,0,1-.41-.37c-.14-.17-.31-.4-.52-.69L90,207.81l-.56,0-.44,0h-.43l-.51-.06v8.67H85.51V201.26a8.78,8.78,0,0,0-.09-1.42,1.66,1.66,0,0,0-.28-.76,2.11,2.11,0,0,0-1.56-.57h-.7V198H89.5a21.05,21.05,0,0,1,2.58.13,10.52,10.52,0,0,1,1.73.31,5.19,5.19,0,0,1,1.27.63,4.52,4.52,0,0,1,1,.95,4.32,4.32,0,0,1,.71,1.26,4.26,4.26,0,0,1,.27,1.54,4.58,4.58,0,0,1-.28,1.63,3.88,3.88,0,0,1-.84,1.35,4.87,4.87,0,0,1-1.4,1,7.12,7.12,0,0,1-2,.65l3.81,5.3a12.33,12.33,0,0,0,1.13,1.55,4.94,4.94,0,0,0,1,.93,3.74,3.74,0,0,0,1.11.52A10.37,10.37,0,0,0,101,216Zm-13-9.54a7,7,0,0,0,2.48-.1,5.24,5.24,0,0,0,1.92-.82,4.07,4.07,0,0,0,1.23-1.36,3.51,3.51,0,0,0,.44-1.71,4.3,4.3,0,0,0-.27-1.54,3.64,3.64,0,0,0-2-2.09,4.33,4.33,0,0,0-1.65-.3,6.9,6.9,0,0,0-.92.07l-1.2.17Z" transform="translate(-64.49 -192.81)" style="fill:url(#New_Gradient_Swatch_1-2)"/><path d="M126.39,198.12h2.55a8.12,8.12,0,0,1,1.16.07,3.51,3.51,0,0,1,.94.25,3.69,3.69,0,0,1,.83.52,7.16,7.16,0,0,1,.81.83l9.76,12.08V198.05h1.19v18.73h-.51l-12-14.81v14.5h-1.19V202a3.34,3.34,0,0,0-.92-2.56,3.73,3.73,0,0,0-2.62-.86Z" transform="translate(-64.49 -192.81)" style="fill:url(#New_Gradient_Swatch_1-3)"/><path d="M169.3,216.48l-.46,0a5.47,5.47,0,0,1-.6,0,7.39,7.39,0,0,1-1.17-.11,4.33,4.33,0,0,1-1.29-.48,5.29,5.29,0,0,1-1.28-1.06,6.48,6.48,0,0,1-1.1-1.88l-4.62-11.06-2.61,6a1.79,1.79,0,0,1,.82-.38,5.8,5.8,0,0,1,1.14-.11,6.78,6.78,0,0,1,1.42.15,3.62,3.62,0,0,1,1.12.4,6.06,6.06,0,0,0-1.56.25,7.23,7.23,0,0,0-2.54,1.34,10.69,10.69,0,0,0-1,.91,9.94,9.94,0,0,0-.75.94,8,8,0,0,0-.52.88l-1.79,4.19h-1.26l8-18.79h.52L166.13,213c.23.53.44,1,.64,1.33a3.8,3.8,0,0,0,.65.89,2.2,2.2,0,0,0,.79.53,3.85,3.85,0,0,0,1.09.23Z" transform="translate(-64.49 -192.81)" style="fill:url(#New_Gradient_Swatch_1-4)"/><path d="M169.36,198.24h2.88a4,4,0,0,1,.62,0,1.25,1.25,0,0,1,.53.19,1.57,1.57,0,0,1,.47.43,2.83,2.83,0,0,1,.38.78c.31.79.58,1.46.8,2s.42,1,.6,1.45.34.79.48,1.12l.46,1,.52,1.13c.18.4.4.89.65,1.47s.54,1.25.89,2,.74,1.73,1.2,2.83l.95-2.21c.27-.61.49-1.14.68-1.58s.36-.82.49-1.12.25-.59.35-.85l.31-.73.33-.78c.12-.29.27-.63.43-1s.36-.87.6-1.43.52-1.24.84-2l1.17-2.76h1.33l-8,18.64h-.51l-6.33-15.2c-.22-.52-.43-1-.63-1.34a4.37,4.37,0,0,0-.66-.92,2.2,2.2,0,0,0-.8-.53,3,3,0,0,0-1-.16Z" transform="translate(-64.49 -192.81)" style="fill:url(#New_Gradient_Swatch_1-5)"/><path d="M220.8,206.9a2.88,2.88,0,0,0-1.12.18,1.44,1.44,0,0,0-.63.53,2.18,2.18,0,0,0-.26.85,9.88,9.88,0,0,0-.06,1.15v5.65a13.74,13.74,0,0,1-3.12,1.22,13.24,13.24,0,0,1-3.37.41,12.46,12.46,0,0,1-4.27-.68,8.38,8.38,0,0,1-3.18-2.08,9.36,9.36,0,0,1-2.35-9.2,12.05,12.05,0,0,1,1.07-2.55,9.4,9.4,0,0,1,3.53-3.6,10,10,0,0,1,1-.52,7.6,7.6,0,0,1,1.11-.37,7.92,7.92,0,0,1,1.28-.22,15.32,15.32,0,0,1,1.6-.07,7.76,7.76,0,0,1,1.3.12,6.71,6.71,0,0,1,1.39.38,7.17,7.17,0,0,1,1.36.73,5.59,5.59,0,0,1,1.2,1.09,5.82,5.82,0,0,1,.9,1.52,6.91,6.91,0,0,1,.46,2h-.51a7.18,7.18,0,0,0-2.28-3.65,6,6,0,0,0-3.82-1.18,6.76,6.76,0,0,0-3,.61,5.94,5.94,0,0,0-2.19,1.85,10.36,10.36,0,0,0-1.69,5.91,11.49,11.49,0,0,0,.51,3.53,9.65,9.65,0,0,0,1.5,2.86,7,7,0,0,0,2.25,1.94,5.87,5.87,0,0,0,2.77.66,6.84,6.84,0,0,0,2-.28,9.79,9.79,0,0,0,1.85-.74v-5.29a3.66,3.66,0,0,1,.12-1.12,2.26,2.26,0,0,1,.65-1.06,3.88,3.88,0,0,1,1.44-.78,8.46,8.46,0,0,1,2.51-.3Z" transform="translate(-64.49 -192.81)" style="fill:url(#New_Gradient_Swatch_1-6)"/><path d="M234.2,197.5a8.42,8.42,0,0,1,6.26,2.81,9.31,9.31,0,0,1,2,3.09,10.38,10.38,0,0,1,.66,3.78,11.3,11.3,0,0,1-.66,3.89,9.12,9.12,0,0,1-2,3.17,8.37,8.37,0,0,1-6.41,2.82,8.62,8.62,0,0,1-3.48-.7,9.2,9.2,0,0,1-2.91-2.05,9.85,9.85,0,0,1-2.61-7.13,9.51,9.51,0,0,1,3-7.24,9.24,9.24,0,0,1,2.86-1.82A9,9,0,0,1,234.2,197.5Zm-.23,1a5.06,5.06,0,0,0-2.52.62,5.29,5.29,0,0,0-1.84,1.75,8.5,8.5,0,0,0-1.14,2.73,15.22,15.22,0,0,0-.39,3.58,15.64,15.64,0,0,0,.4,3.63,9,9,0,0,0,1.15,2.8,5.41,5.41,0,0,0,1.85,1.81,4.81,4.81,0,0,0,2.49.64,5.74,5.74,0,0,0,2.35-.48,5,5,0,0,0,1.9-1.51,7.55,7.55,0,0,0,1.27-2.64,14.1,14.1,0,0,0,.47-3.86,16.5,16.5,0,0,0-.4-3.83,8.94,8.94,0,0,0-1.15-2.85,5.31,5.31,0,0,0-1.88-1.78A5.24,5.24,0,0,0,234,198.5Zm0,7.57a1.19,1.19,0,0,1,.47.09,1.31,1.31,0,0,1,.38.27,1.33,1.33,0,0,1,.24.4,1.37,1.37,0,0,1,.09.49,1.14,1.14,0,0,1-.33.82,1.12,1.12,0,0,1-.85.35,1.13,1.13,0,0,1-.45-.09,1.28,1.28,0,0,1-.38-.26,1.22,1.22,0,0,1-.26-.38,1,1,0,0,1-.1-.44,1.31,1.31,0,0,1,.36-.89,1.31,1.31,0,0,1,.38-.27A1.13,1.13,0,0,1,234,206.07Z" transform="translate(-64.49 -192.81)" style="fill:url(#New_Gradient_Swatch_1-7)"/><path d="M248.71,210.63h.52a7.14,7.14,0,0,0,1.86,4,5.08,5.08,0,0,0,3.66,1.31,4.56,4.56,0,0,0,1.4-.21,3.44,3.44,0,0,0,1.16-.59,2.92,2.92,0,0,0,.81-.94,2.63,2.63,0,0,0,.3-1.26,2.57,2.57,0,0,0-.4-1.41,4.69,4.69,0,0,0-1.18-1.24c-1.22-.72-2.32-1.38-3.32-2s-1.86-1.16-2.59-1.65a4.77,4.77,0,0,1-2.36-4.11,4.56,4.56,0,0,1,.41-1.89,4.69,4.69,0,0,1,1.14-1.55,5.58,5.58,0,0,1,1.71-1.05,5.83,5.83,0,0,1,2.15-.39,6.19,6.19,0,0,1,1.51.19,10.42,10.42,0,0,1,1.61.53l.95.45a4,4,0,0,1,.82.55,2.59,2.59,0,0,1,.56.72,2.1,2.1,0,0,1,.21,1v3h-.54a7.94,7.94,0,0,0-.68-2.43,5.36,5.36,0,0,0-1.17-1.66,4.38,4.38,0,0,0-1.54-.95,5.16,5.16,0,0,0-1.73-.3,3.76,3.76,0,0,0-1.19.2,3.53,3.53,0,0,0-1,.58,2.82,2.82,0,0,0-.73.91,2.41,2.41,0,0,0-.28,1.17,2.31,2.31,0,0,0,.15.8,3.2,3.2,0,0,0,.49.83,5.21,5.21,0,0,0,1.31,1.07c.66.42,1.54.93,2.65,1.53l1.75,1a12.36,12.36,0,0,1,1.27.79,6.56,6.56,0,0,1,1,.8,6.3,6.3,0,0,1,.83,1.05,3.61,3.61,0,0,1,.5,1.14,5.14,5.14,0,0,1,.15,1.27,4.66,4.66,0,0,1-.45,2,5.23,5.23,0,0,1-1.24,1.63,5.55,5.55,0,0,1-1.85,1.07,6.76,6.76,0,0,1-3.74.21c-.54-.11-1.14-.27-1.82-.48l-1-.37a6.86,6.86,0,0,1-1-.48,3,3,0,0,1-.74-.66,1.42,1.42,0,0,1-.29-.89Z" transform="translate(-64.49 -192.81)" style="fill:url(#New_Gradient_Swatch_1-8)"/><path d="M289.55,198l-6.41,18.73h-.54l-4.13-11.69-4.06,11.69h-.49l-2.45-6.91-1.68-4.74-1.06-3-.59-1.63-.27-.71a.78.78,0,0,0-.09-.2,1.83,1.83,0,0,0-.78-.76,2.69,2.69,0,0,0-1.19-.22v-.56h2.78l.47,0a1.27,1.27,0,0,1,.39.12,1.13,1.13,0,0,1,.37.31,3.18,3.18,0,0,1,.39.63c.14.28.3.64.47,1.08s.36,1,.59,1.64l3.59,10.21,3-8.67-.91-2.76a4.76,4.76,0,0,0-.49-.94,4.48,4.48,0,0,0-.48-.58,2.37,2.37,0,0,0-.43-.31,1.84,1.84,0,0,0-.33-.13,1.68,1.68,0,0,0-.36-.06h-.45v-.56h3.28a1.15,1.15,0,0,1,.41.05,1.11,1.11,0,0,1,.38.23,2.54,2.54,0,0,1,.39.55,8.45,8.45,0,0,1,.46,1c.16.42.35.95.56,1.59l3.69,10.58L288.37,198Z" transform="translate(-64.49 -192.81)" style="fill:url(#New_Gradient_Swatch_1-9)"/><path d="M338.29,219.62a7.52,7.52,0,0,1-2.72-.41A3.29,3.29,0,0,1,334,218a4.63,4.63,0,0,1-.73-2,18.65,18.65,0,0,1-.18-2.75V201L326,216.46h-.43L318.44,201v15.48h-1.19V198h2.61l6.68,14.42L333.09,198h2.6v15.23c0,.28,0,.61,0,1s0,.8.06,1.24a11.72,11.72,0,0,0,.21,1.3,4.28,4.28,0,0,0,.43,1.17,2.55,2.55,0,0,0,.75.84,2,2,0,0,0,1.14.32Z" transform="translate(-64.49 -192.81)" style="fill:url(#New_Gradient_Swatch_1-10)"/><path d="M347.63,198v15.19c0,.41,0,.75,0,1a3.13,3.13,0,0,0,.09.69.84.84,0,0,0,.22.43.92.92,0,0,0,.42.26,1.42,1.42,0,0,0,.58.25,3.39,3.39,0,0,0,.64.06h.63v.51h-2.17a5.31,5.31,0,0,1-1.28-.13,2,2,0,0,1-.89-.42,1.85,1.85,0,0,1-.52-.79,4,4,0,0,1-.17-1.26v-.19c0-.76,0-1.46,0-2.12s0-1.29,0-1.88,0-1.17,0-1.72,0-1.09,0-1.62,0-1.2,0-1.81,0-1.24,0-1.9v-2.13c0-.75,0-1.56,0-2.45Z" transform="translate(-64.49 -192.81)" style="fill:url(#New_Gradient_Swatch_1-11)"/><path d="M122.5,217.59c-.51-4.57-1.87-17.89-2.34-22.48-.07-.36-.35-1.36-1.12-.34-3,3.53-11.79,13.72-14.76,17.26-.89,1.08-.13,1.8.32,1.94l5.05,1.54a1.61,1.61,0,0,0,1.74-.7c1.55-3.36,6.64-14.71,6.64-14.71s-2.08,12-2.71,15.91a1.36,1.36,0,0,0,1,1.54l5.08,1.55C122.44,219.41,122.59,218.29,122.5,217.59Z" transform="translate(-64.49 -192.81)" style="fill:url(#New_Gradient_Swatch_1-12)"/><path d="M312.44,216.09c-2-4.59-7.61-18-9.55-22.61-.19-.35-.8-1.31-1.28,0-2,4.62-7.89,18-9.87,22.61-.57,1.4.45,1.91,1,1.91h5.73a1.73,1.73,0,0,0,1.59-1.27c.54-4,2.23-17.39,2.23-17.39s1.66,13.15,2.23,17.39A1.47,1.47,0,0,0,306,218h5.76C313,218,312.76,216.79,312.44,216.09Z" transform="translate(-64.49 -192.81)" style="fill:url(#New_Gradient_Swatch_1-13)"/></svg>